<svg width="29" height="18" xmlns="http://www.w3.org/2000/svg"><title>LOGO</title><g fill="#FFF" fill-rule="evenodd"><path d="M19.008 15.193c-.399 0-.8-.13-1.139-.396-.806-.636.001-1.983.631-2.797-.26-.377-.297-.689-.11-.934.732-.966 1.965-2.355 3.697-4.167a1.84 1.84 0 0 1 2.6-.322c.806.636 1.135 1.81.505 2.623l-4.779 5.595c-.365.472.457-.945-.093-.945m-5.214-3.047c-.456 0-.915-.162-1.302-.496-.92-.795.476-3.9 1.196-4.917l3.13-3.588c.92-1.027 2.169-.96 3.09-.166.921.795.72 2.142 0 3.16l-4.444 5.108c-.418.59-.592.726-1.221.726l-.449.173z" opacity=".62"/><path d="M6.524 9.747a2.04 2.04 0 0 1-.357-2.88l4.071-5.191a2.082 2.082 0 0 1 2.906-.354 2.04 2.04 0 0 1 .357 2.88L9.43 9.393a2.074 2.074 0 0 1-1.634.79c-.445 0-.894-.143-1.273-.436zm2.318 6.771c-.953-.772-1.122-2.199-.378-3.187l5.67-7.006c.858-1 2.413-1.567 3.366-.795.953.772 1.122 2.199.377 3.187l-5.961 7.41a2.159 2.159 0 0 1-1.727.873 2.13 2.13 0 0 1-1.347-.482zm7.438.099c-.937-.679-1.104-1.932-.371-2.8l1.899-2.314c.977-1.181 2.255-1.181 3.192-.503.937.678.888 2.435.156 3.304l-1.854 1.97a2.216 2.216 0 0 1-1.698.766c-.464 0-.93-.138-1.324-.423zm-15.452.026c-.937-.678-1.103-1.932-.371-2.8L2.39 11.3c.732-.868 1.979-1.149 2.916-.47.937.678 1.21 2.059.478 2.927L3.85 16.299a2.216 2.216 0 0 1-1.698.767c-.464 0-.93-.138-1.324-.423z"/><path d="M23.64 16.577c-.937-.679-1.103-1.932-.371-2.8l1.694-2.01c.732-.868 2.085-1.022 3.022-.344.937.679 1.103 1.932.37 2.8l-1.693 2.01a2.216 2.216 0 0 1-1.698.767c-.464 0-.93-.138-1.324-.423z" opacity=".62"/></g></svg>