<svg width="69" height="75" xmlns="http://www.w3.org/2000/svg"><title>empty-icon</title><g transform="translate(2 2)" fill="none" fill-rule="evenodd"><path d="M1.699 11.126L48.273-.486a3 3 0 0 1 3.637 2.185l13.547 54.336a3 3 0 0 1-2.185 3.637L16.698 71.284A3 3 0 0 1 13.06 69.1L-.486 14.762a3 3 0 0 1 2.185-3.636z" stroke="#E4E5E7" stroke-width="2" fill="#F0F1F3"/><rect stroke="#E4E5E7" stroke-width="2" fill="#FFF" x="8" y="4" width="58" height="62" rx="2"/><g transform="rotate(-30 100.34 -40.72)"><circle stroke="#E4E5E7" stroke-width="2" fill="#FFF" cx="10" cy="10" r="10"/><path fill="#E4E5E7" d="M9 20h2v8H9z"/><rect fill="#E4E5E7" x="7" y="23" width="6" height="12" rx="1"/></g><path d="M20 25h34a1 1 0 0 1 0 2H20a1 1 0 0 1 0-2zm0-8h34a1 1 0 0 1 0 2H20a1 1 0 0 1 0-2z" fill="#E4E5E7"/><rect fill="#E4E5E7" x="19" y="33" width="13" height="2" rx="1"/></g></svg>