<svg width="95" height="77" xmlns="http://www.w3.org/2000/svg"><title>fail-icon</title><g fill="none" fill-rule="evenodd"><g stroke="#E4E5E7" stroke-width="2" transform="translate(-1 -1)"><path d="M4.244 18.52a3 3 0 0 0-2.12 3.675l13.48 50.315a3 3 0 0 0 3.675 2.121l58.477-15.669a3 3 0 0 0 2.122-3.674L66.396 4.973a3 3 0 0 0-3.674-2.121L4.244 18.52z" fill="#F0F1F3"/><rect fill="#FFF" x="10" y="10" width="68" height="59" rx="4"/><circle fill="#FFF" cx="28.506" cy="26.674" r="5.281"/><path d="M22.225 55.843l7.153-10.529a2 2 0 0 1 3.26-.067l5.416 7.306a2 2 0 0 0 3.267-.076l11.912-17.74a2 2 0 0 1 3.25-.1L67 48.39" stroke-linecap="round"/></g><g transform="translate(61 43)"><circle stroke="#E4E5E7" stroke-width="2" fill="#FFF" cx="16.5" cy="16.5" r="16.5"/><g transform="translate(14 7)"><path d="M2.5.5v11" stroke="#E4E5E7" stroke-width="3" stroke-linecap="round"/><circle fill="#E4E5E7" cx="2.531" cy="17.002" r="2"/></g></g></g></svg>