<svg width="13" height="13" xmlns="http://www.w3.org/2000/svg"><title>Group</title><path d="M6.822 12.278L4.75 7.724a15.167 15.167 0 0 1-1.363-6.283V.722H.722v11.556h6.1zM.722 0H4.11v1.441c0 2.064.443 4.105 1.298 5.984L7.944 13H.722A.722.722 0 0 1 0 12.278V.722C0 .323.323 0 .722 0zm6.056.722v.692c0 1.953.417 3.883 1.222 5.662l2.357 5.202h1.92V.722h-5.5zM6.056 0h6.222c.399 0 .722.323.722.722v11.556a.722.722 0 0 1-.722.722h-2.154a.361.361 0 0 1-.33-.212L7.343 7.374a14.444 14.444 0 0 1-1.286-5.96V0z" opacity=".8"/></svg>