<?xml version="1.0" encoding="UTF-8"?>
<svg width="17px" height="17px" viewBox="0 0 17 17" version="1.1" xmlns="http://www.w3.org/2000/svg" xmlns:xlink="http://www.w3.org/1999/xlink">
    <!-- Generator: Sketch 48.2 (47327) - http://www.bohemiancoding.com/sketch -->
    <title>Combined Shape</title>
    <desc>Created with Sketch.</desc>
    <defs></defs>
    <g id="Page-1" stroke="none" stroke-width="1" fill="none" fill-rule="evenodd">
        <path d="M12,2 L12,0 L14,0 L14,2 L17,2 L17,3 L17,17 L0,17 L0,3 L0,2 L3,2 L3,0 L5,0 L5,2 L12,2 Z M1,4 L1,16 L16,16 L16,4 L1,4 Z M14,6 L14,8 L11,8 L11,6 L14,6 Z M10,6 L10,8 L7,8 L7,6 L10,6 Z M14,9 L14,11 L11,11 L11,9 L14,9 Z M10,9 L10,11 L7,11 L7,9 L10,9 Z M6,9 L6,11 L3,11 L3,9 L6,9 Z M14,12 L14,14 L11,14 L11,12 L14,12 Z M10,12 L10,14 L7,14 L7,12 L10,12 Z M6,12 L6,14 L3,14 L3,12 L6,12 Z" id="Combined-Shape" fill="#B8BCC2" fill-rule="nonzero"></path>
    </g>
</svg>