<svg width="14" height="14" xmlns="http://www.w3.org/2000/svg"><g transform="translate(-64 -2)" fill="none" fill-rule="evenodd"><circle stroke="#979797" fill="#FFF" cx="71" cy="9" r="6"/><path d="M70.849 4.992c.704 0 1.265.187 1.694.583.407.374.616.891.616 1.551 0 .495-.143.924-.418 1.287-.11.132-.407.418-.891.847a2.265 2.265 0 0 0-.517.605 1.536 1.536 0 0 0-.209.803v.253h-.88v-.253c0-.363.066-.682.198-.957.154-.33.517-.748 1.111-1.276.176-.176.308-.308.374-.396.22-.275.33-.561.33-.869 0-.44-.132-.781-.374-1.023-.253-.264-.616-.385-1.078-.385-.55 0-.957.176-1.221.539-.242.308-.363.726-.363 1.265h-.869c0-.77.209-1.386.649-1.848.44-.484 1.056-.726 1.848-.726zm-.165 6.699c.187 0 .352.055.484.187a.63.63 0 0 1 .187.462.606.606 0 0 1-.198.473.674.674 0 0 1-.473.187.674.674 0 0 1-.473-.187.63.63 0 0 1-.187-.473.59.59 0 0 1 .187-.462.63.63 0 0 1 .473-.187z" fill="#000" opacity=".5"/></g></svg>